<svg width="314" height="314" viewBox="0 0 314 314" fill="none" xmlns="http://www.w3.org/2000/svg">
<path d="M0.628052 108.197C6.35418 107.858 12.0931 107.854 17.803 107.446C24.0987 106.995 29.2911 109.212 33.619 113.497C38.7214 118.549 42.4699 124.523 44.5764 131.633C44.3346 131.88 44.2277 131.883 44.1209 131.887C43.3687 129.805 41.792 129.135 39.7004 129.183C35.5259 129.277 31.3499 129.324 27.1743 129.355C18.5597 129.419 11.8634 125.717 7.02213 118.723C4.83301 115.561 3.01681 112.14 0.829742 108.753C0.628052 108.668 0.628052 108.354 0.628052 108.197Z" fill="#92A967"/>
<path d="M48.6886 133.016C54.9569 128.343 61.8225 125.799 69.7195 127.494C71.5057 127.877 73.4645 128.567 74.8025 129.735C80.4275 134.647 85.8471 139.794 91.4169 144.924C81.2747 151.661 72.1311 151.61 64.8773 145.409C61.4719 142.497 58.3196 139.289 54.9153 136.376C53.4666 135.137 51.6663 134.308 49.6418 133.246C49.0758 133.115 48.8861 133.054 48.6886 133.016ZM62.2134 136.573C62.3385 136.641 62.4596 136.722 62.5929 136.765C62.6151 136.772 62.7307 136.615 62.7354 136.53C62.7902 135.527 62.8321 134.523 62.8774 133.52C62.6973 133.518 62.5173 133.516 62.3373 133.515C62.2845 134.397 62.2316 135.279 62.2134 136.573ZM64.6631 134.19C64.8488 133.846 65.0345 133.503 65.2202 133.159C65.0884 133.101 64.9566 133.043 64.8248 132.986C64.692 133.318 64.5592 133.651 64.6631 134.19ZM61.0744 132.842C60.8256 132.761 60.5797 132.667 60.3254 132.61C60.2746 132.599 60.1915 132.734 60.1234 132.802C60.3722 132.882 60.621 132.963 61.0744 132.842ZM54.6202 131.991C54.3622 132.051 54.1041 132.111 53.8461 132.171C53.9031 132.247 53.9698 132.394 54.0156 132.388C54.2775 132.352 54.5344 132.28 54.6202 131.991ZM57.7683 131.99C57.5087 132.051 57.249 132.111 56.9893 132.172C57.0472 132.248 57.1148 132.395 57.1615 132.388C57.425 132.353 57.6836 132.28 57.7683 131.99Z" fill="#92A967"/>
<path d="M50.2949 182.873C44.6151 187.049 38.4732 184.974 37.8306 178.256C37.0992 170.61 37.1305 162.826 37.6108 155.151C37.9581 149.601 41.4522 147.35 47.1421 147.589C51.9732 147.792 54.6879 150.527 55.2351 155.802C55.3828 157.226 55.4126 158.661 55.5097 160.316C53.1034 160.316 50.962 160.316 48.5072 160.316C48.4329 159.112 48.553 157.851 48.2204 156.725C47.9731 155.888 47.6605 154.477 46.5661 154.483C45.53 154.488 44.7485 156.019 44.693 156.844C44.4693 160.173 44.5814 163.525 44.5813 166.868C44.5812 169.794 44.4563 172.731 44.6911 175.638C44.762 176.516 45.53 176.468 46.472 176.468C47.1 176.468 48.1218 176.399 48.042 175.638C48.042 173.642 49.298 167.676 46.644 168.932C46.958 168.618 46.644 165.457 46.644 163.445C49.4974 163.445 52.2547 163.445 55.182 163.445C55.182 170.458 54.95 177.032 54.95 184.946C53.38 184.632 52.8023 185.204 51.81 183.376C51.4205 183.156 50.8907 182.837 50.2949 182.873Z" fill="#94AA68"/>
<path d="M158.099 181.626C152.42 185.801 146.278 183.726 145.635 177.008C144.904 169.362 144.935 161.579 145.415 153.903C145.763 148.353 149.257 146.102 154.947 146.341C159.778 146.544 162.492 149.279 163.04 154.554C163.187 155.978 163.217 157.413 163.314 159.068C160.908 159.068 158.766 159.068 156.312 159.068C156.237 157.864 156.357 156.604 156.025 155.477C155.778 154.64 155.465 153.229 154.371 153.235C153.334 153.24 152.553 154.771 152.497 155.596C152.274 158.925 152.386 162.277 152.386 165.621C152.386 168.546 152.261 171.483 152.496 174.39C152.566 175.268 153.334 175.22 154.276 175.22C154.904 175.22 155.926 175.152 155.846 174.39C155.846 172.394 157.102 166.428 154.448 167.684C154.762 167.37 154.448 164.209 154.448 162.198C157.302 162.198 160.059 162.198 162.986 162.198C162.986 169.21 162.754 175.784 162.754 183.698C161.184 183.384 160.607 183.956 159.614 182.128C159.225 181.908 158.695 181.59 158.099 181.626Z" fill="#94AA68"/>
<path d="M166.504 173.302C166.504 166.534 166.504 160.075 166.504 153.45C169.072 153.45 171.327 153.45 174.058 153.45C174.058 155.907 174.057 158.368 174.058 160.83C174.058 165.433 173.972 170.039 174.105 174.639C174.15 176.195 173.956 178.666 175.84 178.666C177.096 178.666 177.695 176.255 177.41 174.584C177.611 168.627 177.542 162.559 177.555 156.595C177.557 155.565 177.556 154.535 177.556 153.4C180.126 153.4 182.397 153.4 184.87 153.4C184.87 163.725 184.87 173.931 184.87 184.561C176.782 184.632 178.666 185.574 177.096 180.55C175.212 187.144 167.389 184.965 166.638 178.627C166.443 176.973 166.541 175.285 166.504 173.302Z" fill="#595959"/>
<path d="M122.419 154.882C124.731 153.217 127.149 152.252 129.926 153.699C132.623 155.104 133.077 157.721 133.092 160.409C133.136 168.346 133.107 176.282 133.107 184.429C130.619 184.429 128.291 184.429 125.655 184.429C125.655 177.573 125.74 170.801 125.597 164.033C125.56 162.276 126.753 159.103 124.062 159.111C121.188 159.119 122.357 162.386 122.312 164.223C122.15 170.895 122.248 177.574 122.248 184.444C119.656 184.444 117.312 184.444 114.859 184.444C114.859 174.091 114.924 163.731 114.924 153.232C116.873 153.181 118.692 153.232 120.576 153.232C121.245 153.283 121.755 154.2 122.419 154.882Z" fill="#595959"/>
<path d="M80.2374 173.925C80.698 176.154 79.2585 178.87 81.8399 178.98C84.7477 179.104 83.524 177.62 83.838 174.584C83.7182 173.925 83.6695 173.413 83.7182 172.722C86.1494 172.722 88.5084 172.722 91.0298 172.722C91.0298 174.035 91.1081 175.283 91.0165 176.52C90.5841 182.356 87.503 185.112 81.5814 185.023C76.0595 184.939 73.0769 182.211 72.8403 176.534C72.6228 171.317 72.6181 166.079 72.8181 160.861C73.0154 155.714 76.4608 153.001 82.1983 153.047C87.8287 153.093 90.8211 155.725 91.039 160.983C91.1546 163.771 91.0595 166.569 91.0595 169.654C87.3559 169.654 83.9542 169.654 80.2372 169.654C80.2372 171.176 80.2372 172.401 80.2374 173.925ZM83.524 162.966C83.524 162.264 83.5266 161.622 83.524 161.082C83.524 160.14 83.098 158.745 81.7908 158.745C80.698 158.884 80.4499 160.264 80.3086 161.112C80.0634 162.583 80.2372 164.416 80.3086 165.792C84.466 165.792 83.524 166.42 83.524 162.966Z" fill="#585858"/>
<path d="M101.765 174.11C102.226 176.339 100.786 179.055 103.367 179.165C106.275 179.289 105.052 177.806 105.366 174.769C105.246 174.11 105.197 173.598 105.246 172.908C107.677 172.908 110.036 172.908 112.557 172.908C112.557 174.22 112.636 175.469 112.544 176.705C112.112 182.541 109.03 185.298 103.109 185.208C97.5869 185.124 94.6044 182.396 94.3677 176.719C94.1503 171.502 94.1456 166.264 94.3456 161.046C94.5429 155.899 97.9883 153.186 103.726 153.233C109.356 153.278 112.349 155.91 112.566 161.168C112.682 163.957 112.587 166.754 112.587 169.839C108.883 169.839 105.482 169.839 101.765 169.839C101.765 171.361 101.765 172.587 101.765 174.11ZM105.052 163.151C105.052 162.449 105.054 161.807 105.052 161.267C105.052 160.325 104.626 158.931 103.318 158.931C102.226 159.069 101.977 160.45 101.836 161.297C101.591 162.768 101.765 164.602 101.836 165.977C105.994 165.977 105.052 166.605 105.052 163.151Z" fill="#585858"/>
<path d="M195.337 174.11C195.798 176.339 194.358 179.055 196.939 179.165C199.847 179.289 198.624 177.806 198.938 174.769C198.818 174.11 198.769 173.598 198.818 172.908C201.249 172.908 203.608 172.908 206.129 172.908C206.129 174.22 206.208 175.469 206.116 176.705C205.684 182.541 202.602 185.298 196.681 185.208C191.159 185.124 188.176 182.396 187.94 176.719C187.722 171.502 187.718 166.264 187.918 161.046C188.115 155.899 191.56 153.186 197.298 153.233C202.928 153.278 205.921 155.91 206.138 161.168C206.254 163.957 206.159 166.754 206.159 169.839C202.455 169.839 199.054 169.839 195.337 169.839C195.337 171.361 195.337 172.587 195.337 174.11ZM198.624 163.151C198.624 162.449 198.626 161.807 198.624 161.267C198.624 160.325 198.198 158.931 196.89 158.931C195.798 159.069 195.549 160.45 195.408 161.297C195.163 162.768 195.337 164.602 195.408 165.977C199.566 165.977 198.624 166.605 198.624 163.151Z" fill="#585858"/>
<path d="M255.872 156.837C258.408 153.343 262.989 152.076 267.536 153.433C271.173 154.519 273.02 157.128 273.054 161.561C273.111 169.08 273.069 176.6 273.069 184.379C270.611 184.379 268.274 184.379 265.775 184.379C265.678 183.863 265.554 183.2 265.404 182.398C265.093 182.614 264.798 182.728 264.638 182.943C263.106 185.003 260.883 185.657 258.822 184.551C257.273 183.719 255.784 182.01 255.191 180.36C254.479 178.38 254.591 176.044 254.622 173.867C254.697 168.612 258.257 166.385 262.714 165.347C265.283 164.748 265.943 163.304 265.375 161.094C265.162 160.263 264.388 160.454 263.76 160.454C263.132 160.454 262.79 160.26 262.414 161.008C262.241 161.352 262.301 161.812 262.233 162.416C259.944 162.416 257.694 162.416 254.882 162.416C255.178 160.593 255.465 158.822 255.872 156.837ZM265.531 173.032C265.531 171.51 265.531 169.988 265.531 168.332C262.381 169.593 260.657 176.661 262.825 178.519C263.167 178.812 265.028 178.177 265.217 177.634C265.643 176.405 265.464 174.966 265.531 173.032Z" fill="#585858"/>
<path d="M293.35 158.455C293.554 159.825 293.699 160.96 293.876 162.357C291.276 162.357 288.841 162.357 286.145 162.357C285.939 162.178 285.939 161.551 285.939 161.034C285.939 160.14 286.368 158.884 284.554 158.889C285.112 158.884 283.645 158.858 283.327 159.441C283.327 160.694 283.104 161.761 283.643 162.275C285.443 163.996 287.539 165.404 289.504 166.955C293.104 169.796 294.645 173.462 293.749 178.012C292.843 182.606 289.513 185.029 284.362 184.946C279.129 184.862 276.068 182.404 275.408 177.595C275.214 176.186 275.378 174.729 275.378 173.163C277.84 173.163 280.115 173.163 282.648 173.163C282.729 174.505 282.616 175.872 282.963 177.109C283.159 177.806 283.776 178.87 284.729 178.87C285.426 178.87 286.07 177.549 285.966 177.051C285.642 175.504 285.266 173.761 284.299 172.608C282.984 171.039 281.099 169.951 279.467 168.645C275.954 165.833 274.603 162.187 275.688 158.48C276.632 155.252 279.488 153.296 283.645 153.031C288.777 152.705 291.299 154.062 293.35 158.455Z" fill="#575757"/>
<path d="M241.693 167.048C241.693 172.979 241.693 178.595 241.693 184.424C239.155 184.424 236.81 184.424 234.229 184.424C234.229 172.359 234.229 160.224 234.229 147.862C236.533 147.862 238.868 147.862 241.693 147.862C241.693 154.103 241.693 160.419 241.693 167.048Z" fill="#585858"/>
<path d="M244.499 148.508C246.957 147.945 249.363 147.665 252.02 147.356C252.02 160.014 252.02 172.184 252.02 184.504C249.545 184.504 247.184 184.504 244.448 184.504C244.448 172.551 244.448 160.671 244.499 148.508Z" fill="#606060"/>
<path d="M58.1535 166.42C58.1536 161.943 58.1536 157.779 58.1536 153.19C61.0097 153.782 63.9382 152.093 66.2908 154.763C67.4904 154.202 69.0153 153.489 70.8711 152.622C70.8711 155.118 70.8711 157.051 70.8711 159.155C70.046 159.279 69.3463 159.445 68.64 159.481C66.4572 159.591 65.6372 160.589 65.6813 162.87C65.8185 169.96 65.7315 177.054 65.7315 184.394C63.2262 184.394 60.8914 184.394 58.1533 184.394C58.1533 178.565 58.1533 172.65 58.1535 166.42Z" fill="#5A5A5A"/>
<path d="M216.451 177.704C216.451 180.087 216.451 182.159 216.451 184.435C213.873 184.435 211.527 184.435 209.032 184.435C209.032 174.133 209.032 163.831 209.032 153.119C211.751 153.955 214.811 151.823 216.9 154.824C218.208 154.185 219.654 153.478 221.506 152.573C221.506 155.012 221.506 156.92 221.506 158.908C221.429 158.973 221.288 159.194 221.113 159.225C216.452 160.065 216.452 160.062 216.451 164.856C216.451 169.035 216.451 173.214 216.451 177.704Z" fill="#5A5A5A"/>
<path d="M223.491 184.318C223.485 174.239 223.485 164.463 223.485 154.518C226.011 154.518 228.265 154.518 230.761 154.518C230.761 164.764 231.104 173.218 231.104 184.318C228.592 184.318 226.08 184.318 223.491 184.318Z" fill="#585858"/>
<path d="M32.127 172.081C32.7445 175.612 33.5044 178.792 33.8982 182.002C34.0265 183.047 33.1997 184.172 32.8097 185.26C31.8442 184.478 30.3189 183.825 29.9994 182.895C26.6327 173.093 28.4072 163.541 33.1408 154.386C35.9684 148.917 39.739 143.774 43.96 138.788C37.8118 149.301 31.7081 159.733 32.127 172.081Z" fill="#9CB073"/>
<path d="M223.568 148.836C223.568 146.01 223.254 145.96 225.341 145.96C226.853 145.96 228.402 145.99 230.131 145.99C230.131 147.767 230.131 149.269 230.131 151.3C228.203 151.3 226.175 151.45 224.196 151.201C223.52 151.201 223.568 149.778 223.568 148.836Z" fill="#5A5A5A"/>
<path d="M43.96 132.137C44.0446 131.888 44.1515 131.885 44.4197 131.88C45.0147 132.859 45.4484 133.839 46.1344 135C46.3867 135.182 46.514 135.364 46.514 135.364C45.6663 136.458 44.8187 137.551 43.9822 138.63C43.9822 136.374 43.9822 134.379 43.96 132.137Z" fill="#9CB073"/>
<path d="M48.5085 133.068C48.8861 133.054 49.0759 133.115 49.3834 133.28C48.703 133.972 47.8972 134.586 46.8942 135.268C46.6971 135.336 46.5698 135.153 46.5022 135.065C47.0659 134.357 47.6972 133.738 48.5085 133.068Z" fill="#9CB073"/>
<path d="M62.196 136.367C62.2316 135.279 62.2844 134.397 62.3372 133.515C62.5172 133.516 62.6973 133.518 62.8773 133.52C62.832 134.523 62.7901 135.527 62.7353 136.53C62.7306 136.615 62.615 136.772 62.5928 136.765C62.4595 136.722 62.3385 136.641 62.196 136.367Z" fill="#7AA55E"/>
<path d="M64.5447 134.087C64.5591 133.651 64.6919 133.318 64.8247 132.986C64.9565 133.043 65.0883 133.101 65.2201 133.159C65.0344 133.503 64.8487 133.846 64.5447 134.087Z" fill="#7AA55E"/>
<path d="M60.9721 132.943C60.621 132.963 60.3721 132.882 60.1233 132.802C60.1915 132.734 60.2745 132.599 60.3253 132.61C60.5796 132.667 60.8255 132.761 60.9721 132.943Z" fill="#7AA55E"/>
<path d="M54.7066 132.106C54.5344 132.28 54.2775 132.352 54.0156 132.388C53.9698 132.394 53.9031 132.247 53.8461 132.171C54.1041 132.111 54.3621 132.051 54.7066 132.106Z" fill="#7AA55E"/>
<path d="M57.856 132.105C57.6836 132.28 57.425 132.353 57.1614 132.388C57.1147 132.395 57.0472 132.248 56.9893 132.172C57.2489 132.111 57.5086 132.051 57.856 132.105Z" fill="#7AA55E"/>
<path d="M58.7517 133.425C58.7293 133.388 58.7741 133.462 58.7517 133.425Z" fill="#7AA55E"/>
</svg>
